<svg xmlns="http://www.w3.org/2000/svg" width="600" height="600" viewBox="0 0 600 600">
  <defs>
    <linearGradient id="bg" x1="100%" y1="100%" x2="0%" y2="0%">
      <stop offset="0%" style="stop-color:#FFF8F0"/>
      <stop offset="40%" style="stop-color:#F5EDE3"/>
      <stop offset="100%" style="stop-color:#E5D0B8"/>
    </linearGradient>
    <radialGradient id="glow" cx="45%" cy="55%" r="45%">
      <stop offset="0%" style="stop-color:#C9956B;stop-opacity:0.1"/>
      <stop offset="100%" style="stop-color:#C9956B;stop-opacity:0"/>
    </radialGradient>
  </defs>

  <rect width="600" height="600" fill="url(#bg)"/>
  <rect width="600" height="600" fill="url(#glow)"/>

  <!-- Spiral-like concentric arcs -->
  <path d="M300 200 Q400 200 400 300" fill="none" stroke="#C9956B" stroke-width="0.5" opacity="0.15"/>
  <path d="M400 300 Q400 400 300 400" fill="none" stroke="#C9956B" stroke-width="0.5" opacity="0.15"/>
  <path d="M300 400 Q200 400 200 300" fill="none" stroke="#C9956B" stroke-width="0.5" opacity="0.15"/>
  <path d="M200 300 Q200 200 300 200" fill="none" stroke="#C9956B" stroke-width="0.5" opacity="0.15"/>

  <!-- Larger arcs -->
  <path d="M300 160 Q440 160 440 300" fill="none" stroke="#8B7355" stroke-width="0.3" opacity="0.1"/>
  <path d="M440 300 Q440 440 300 440" fill="none" stroke="#8B7355" stroke-width="0.3" opacity="0.1"/>
  <path d="M300 440 Q160 440 160 300" fill="none" stroke="#8B7355" stroke-width="0.3" opacity="0.1"/>
  <path d="M160 300 Q160 160 300 160" fill="none" stroke="#8B7355" stroke-width="0.3" opacity="0.1"/>

  <!-- Center dot cluster -->
  <circle cx="300" cy="250" r="3" fill="#C9956B" opacity="0.15"/>
  <circle cx="280" cy="260" r="2" fill="#C9956B" opacity="0.12"/>
  <circle cx="320" cy="260" r="2" fill="#C9956B" opacity="0.12"/>
  <circle cx="290" cy="245" r="1.5" fill="#8B7355" opacity="0.1"/>
  <circle cx="310" cy="245" r="1.5" fill="#8B7355" opacity="0.1"/>

  <!-- Horizontal decorative lines -->
  <line x1="200" y1="275" x2="260" y2="275" stroke="#C9956B" stroke-width="0.5" opacity="0.2"/>
  <line x1="340" y1="275" x2="400" y2="275" stroke="#C9956B" stroke-width="0.5" opacity="0.2"/>
  <line x1="200" y1="345" x2="260" y2="345" stroke="#C9956B" stroke-width="0.5" opacity="0.2"/>
  <line x1="340" y1="345" x2="400" y2="345" stroke="#C9956B" stroke-width="0.5" opacity="0.2"/>

  <!-- Text -->
  <text x="300" y="305" text-anchor="middle" font-family="Georgia, 'Times New Roman', serif" font-size="26" fill="#3D3D3D" letter-spacing="2" opacity="0.65">Photo 6</text>
  <text x="300" y="330" text-anchor="middle" font-family="Georgia, 'Times New Roman', serif" font-size="12" fill="#8B7355" letter-spacing="5" font-style="italic" opacity="0.4">Gallery</text>

  <!-- Corner stars -->
  <path d="M80 80 L82 85 L87 85 L83 88 L85 93 L80 90 L75 93 L77 88 L73 85 L78 85 Z" fill="#C9956B" opacity="0.15"/>
  <path d="M520 80 L522 85 L527 85 L523 88 L525 93 L520 90 L515 93 L517 88 L513 85 L518 85 Z" fill="#C9956B" opacity="0.15"/>
  <path d="M80 520 L82 525 L87 525 L83 528 L85 533 L80 530 L75 533 L77 528 L73 525 L78 525 Z" fill="#C9956B" opacity="0.15"/>
  <path d="M520 520 L522 525 L527 525 L523 528 L525 533 L520 530 L515 533 L517 528 L513 525 L518 525 Z" fill="#C9956B" opacity="0.15"/>

  <!-- Scattered dots -->
  <circle cx="150" cy="150" r="2" fill="#C9956B" opacity="0.18"/>
  <circle cx="450" cy="160" r="2" fill="#8B7355" opacity="0.12"/>
  <circle cx="160" cy="440" r="2.5" fill="#C9956B" opacity="0.12"/>
  <circle cx="440" cy="450" r="2" fill="#8B7355" opacity="0.15"/>
</svg>